<svg viewBox="0 0 400 400" xmlns="http://www.w3.org/2000/svg">
  <!-- Background circle -->
  <circle cx="200" cy="200" r="180" fill="#f5f5f5" stroke="#1976d2" stroke-width="5"/>
  
  <!-- Inner designs representing digital heritage -->
  <g transform="translate(200, 200)">
    <!-- Tree-like structure (representing heritage/family tree) -->
    <path d="M0,-120 L-60,-40 L60,-40 Z" fill="#4caf50" stroke="#2e7d32" stroke-width="3"/>
    <rect x="-10" y="-40" width="20" height="60" fill="#795548" stroke="#4e342e" stroke-width="2"/>
    
    <!-- Digital circuits representing technology -->
    <path d="M-100,30 L-70,30 L-70,60 L-30,60 L-30,30 L30,30 L30,60 L70,60 L70,30 L100,30" 
          fill="none" stroke="#1976d2" stroke-width="4" stroke-linecap="round"/>
    
    <!-- Small nodes representing data -->
    <circle cx="-70" cy="30" r="6" fill="#f44336"/>
    <circle cx="-30" cy="60" r="6" fill="#f44336"/>
    <circle cx="30" cy="30" r="6" fill="#f44336"/>
    <circle cx="70" cy="60" r="6" fill="#f44336"/>
    
    <!-- Block nodes (representing blockchain) -->
    <rect x="-90" y="80" width="25" height="25" fill="#ffb74d" stroke="#fb8c00" stroke-width="2" rx="3" ry="3" transform="rotate(10)"/>
    <rect x="-60" y="85" width="25" height="25" fill="#ffb74d" stroke="#fb8c00" stroke-width="2" rx="3" ry="3" transform="rotate(15)"/>
    <rect x="-30" y="90" width="25" height="25" fill="#ffb74d" stroke="#fb8c00" stroke-width="2" rx="3" ry="3" transform="rotate(20)"/>
    <rect x="0" y="90" width="25" height="25" fill="#ffb74d" stroke="#fb8c00" stroke-width="2" rx="3" ry="3" transform="rotate(25)"/>
    <rect x="30" y="85" width="25" height="25" fill="#ffb74d" stroke="#fb8c00" stroke-width="2" rx="3" ry="3" transform="rotate(30)"/>
    <rect x="60" y="80" width="25" height="25" fill="#ffb74d" stroke="#fb8c00" stroke-width="2" rx="3" ry="3" transform="rotate(35)"/>
  </g>
  
  <!-- Binary code circle around the edge (representing digital) -->
  <g transform="translate(200, 200)">
    <g transform="rotate(0)">
      <text x="0" y="-160" font-family="Courier New" font-size="10" text-anchor="middle" fill="#616161">01001100</text>
    </g>
    <g transform="rotate(45)">
      <text x="0" y="-160" font-family="Courier New" font-size="10" text-anchor="middle" fill="#616161">10100110</text>
    </g>
    <g transform="rotate(90)">
      <text x="0" y="-160" font-family="Courier New" font-size="10" text-anchor="middle" fill="#616161">11010010</text>
    </g>
    <g transform="rotate(135)">
      <text x="0" y="-160" font-family="Courier New" font-size="10" text-anchor="middle" fill="#616161">01101001</text>
    </g>
    <g transform="rotate(180)">
      <text x="0" y="-160" font-family="Courier New" font-size="10" text-anchor="middle" fill="#616161">10010101</text>
    </g>
    <g transform="rotate(225)">
      <text x="0" y="-160" font-family="Courier New" font-size="10" text-anchor="middle" fill="#616161">00110110</text>
    </g>
    <g transform="rotate(270)">
      <text x="0" y="-160" font-family="Courier New" font-size="10" text-anchor="middle" fill="#616161">11001010</text>
    </g>
    <g transform="rotate(315)">
      <text x="0" y="-160" font-family="Courier New" font-size="10" text-anchor="middle" fill="#616161">10101100</text>
    </g>
  </g>
  
  <!-- Inner circle with Korean text -->
  <circle cx="200" cy="200" r="130" fill="none" stroke="#1976d2" stroke-width="2" stroke-dasharray="5,3"/>
  
  <!-- Korean text for Digital Heritage -->
  <text x="200" y="140" font-family="Arial" font-size="24" font-weight="bold" text-anchor="middle" fill="#1976d2">디지털 유산</text>
  <text x="200" y="270" font-family="Arial" font-size="18" font-weight="bold" text-anchor="middle" fill="#1976d2">관리 플랫폼</text>
</svg>